<svg width="256" height="256" viewBox="0 0 256 256" fill="none" xmlns="http://www.w3.org/2000/svg">
<path d="M208 32H48C43.7565 32 39.6869 33.6857 36.6863 36.6863C33.6857 39.6869 32 43.7565 32 48V208C32 212.243 33.6857 216.313 36.6863 219.314C39.6869 222.314 43.7565 224 48 224H208C212.243 224 216.313 222.314 219.314 219.314C222.314 216.313 224 212.243 224 208V48C224 43.7565 222.314 39.6869 219.314 36.6863C216.313 33.6857 212.243 32 208 32ZM181.66 170.34C182.403 171.083 182.993 171.966 183.395 172.937C183.797 173.908 184.004 174.949 184.004 176C184.004 177.051 183.797 178.092 183.395 179.063C182.993 180.034 182.403 180.917 181.66 181.66C180.917 182.403 180.034 182.993 179.063 183.395C178.092 183.797 177.051 184.004 176 184.004C174.949 184.004 173.908 183.797 172.937 183.395C171.966 182.993 171.083 182.403 170.34 181.66L128 139.31L85.66 181.66C84.1589 183.161 82.1229 184.004 80 184.004C77.8771 184.004 75.8411 183.161 74.34 181.66C72.8389 180.159 71.9956 178.123 71.9956 176C71.9956 173.877 72.8389 171.841 74.34 170.34L116.69 128L74.34 85.66C72.8389 84.1589 71.9956 82.1229 71.9956 80C71.9956 77.8771 72.8389 75.8411 74.34 74.34C75.8411 72.8389 77.8771 71.9956 80 71.9956C82.1229 71.9956 84.1589 72.8389 85.66 74.34L128 116.69L170.34 74.34C171.841 72.8389 173.877 71.9956 176 71.9956C178.123 71.9956 180.159 72.8389 181.66 74.34C183.161 75.8411 184.004 77.8771 184.004 80C184.004 82.1229 183.161 84.1589 181.66 85.66L139.31 128L181.66 170.34Z" fill="black"/>
</svg>
